<svg width="128" height="49" viewBox="0 0 128 49" fill="none" xmlns="http://www.w3.org/2000/svg">
<g filter="url(#filter0_d_55_120)">
<rect x="5.5" y="0.5" width="122" height="43" rx="3.5" fill="white" stroke="black"/>
<path d="M65 0H124C126.209 0 128 1.79086 128 4V40C128 42.2091 126.209 44 124 44H65V0Z" fill="black"/>
<path d="M13.9545 16.196V13.5455H27.8807V16.196H22.4858V31H19.3494V16.196H13.9545ZM29.0696 31V17.9091H32.0611V20.0909H32.1974C32.4361 19.3352 32.8452 18.7528 33.4247 18.3438C34.0099 17.929 34.6776 17.7216 35.4276 17.7216C35.598 17.7216 35.7884 17.7301 35.9986 17.7472C36.2145 17.7585 36.3935 17.7784 36.5355 17.8068V20.6449C36.4048 20.5994 36.1974 20.5597 35.9134 20.5256C35.6349 20.4858 35.3651 20.4659 35.1037 20.4659C34.5412 20.4659 34.0355 20.5881 33.5866 20.8324C33.1435 21.071 32.794 21.4034 32.5384 21.8295C32.2827 22.2557 32.1548 22.7472 32.1548 23.304V31H29.0696ZM42.1179 31.2642C41.2884 31.2642 40.5412 31.1165 39.8764 30.821C39.2173 30.5199 38.6946 30.0767 38.3082 29.4915C37.9276 28.9062 37.7372 28.1847 37.7372 27.3267C37.7372 26.5881 37.8736 25.9773 38.1463 25.4943C38.419 25.0114 38.7912 24.625 39.2628 24.3352C39.7344 24.0455 40.2656 23.8267 40.8565 23.679C41.4531 23.5256 42.0696 23.4148 42.706 23.3466C43.473 23.267 44.0952 23.196 44.5724 23.1335C45.0497 23.0653 45.3963 22.9631 45.6122 22.8267C45.8338 22.6847 45.9446 22.4659 45.9446 22.1705V22.1193C45.9446 21.4773 45.7543 20.9801 45.3736 20.6278C44.9929 20.2756 44.4446 20.0994 43.7287 20.0994C42.973 20.0994 42.3736 20.2642 41.9304 20.5938C41.4929 20.9233 41.1974 21.3125 41.044 21.7614L38.1634 21.3523C38.3906 20.5568 38.7656 19.892 39.2884 19.358C39.8111 18.8182 40.4503 18.4148 41.206 18.1477C41.9616 17.875 42.7969 17.7386 43.7116 17.7386C44.3423 17.7386 44.9702 17.8125 45.5952 17.9602C46.2202 18.108 46.7912 18.3523 47.3082 18.6932C47.8253 19.0284 48.2401 19.4858 48.5526 20.0653C48.8707 20.6449 49.0298 21.3693 49.0298 22.2386V31H46.0639V29.2017H45.9616C45.7741 29.5653 45.5099 29.9062 45.169 30.2244C44.8338 30.5369 44.4105 30.7898 43.8991 30.983C43.3935 31.1705 42.7997 31.2642 42.1179 31.2642ZM42.919 28.9972C43.5384 28.9972 44.0753 28.875 44.5298 28.6307C44.9844 28.3807 45.3338 28.0511 45.5781 27.642C45.8281 27.233 45.9531 26.7869 45.9531 26.304V24.7614C45.8565 24.8409 45.6918 24.9148 45.4588 24.983C45.2315 25.0511 44.9759 25.1108 44.6918 25.1619C44.4077 25.2131 44.1264 25.2585 43.848 25.2983C43.5696 25.3381 43.3281 25.3722 43.1236 25.4006C42.6634 25.4631 42.2514 25.5653 41.8878 25.7074C41.5241 25.8494 41.2372 26.0483 41.027 26.304C40.8168 26.554 40.7116 26.8778 40.7116 27.2756C40.7116 27.8438 40.919 28.2727 41.3338 28.5625C41.7486 28.8523 42.277 28.9972 42.919 28.9972ZM57.8423 31.2557C56.5355 31.2557 55.4134 30.9688 54.4759 30.3949C53.544 29.821 52.8253 29.0284 52.3196 28.017C51.8196 27 51.5696 25.8295 51.5696 24.5057C51.5696 23.1761 51.8253 22.0028 52.3366 20.9858C52.848 19.9631 53.5696 19.1676 54.5014 18.5994C55.4389 18.0256 56.5469 17.7386 57.8253 17.7386C58.8878 17.7386 59.8281 17.9347 60.6463 18.3267C61.4702 18.7131 62.1264 19.2614 62.6151 19.9716C63.1037 20.6761 63.3821 21.5 63.4503 22.4432H60.5014C60.3821 21.8125 60.098 21.2869 59.6491 20.8665C59.206 20.4403 58.6122 20.2273 57.8679 20.2273C57.2372 20.2273 56.6832 20.3977 56.206 20.7386C55.7287 21.0739 55.3565 21.5568 55.0895 22.1875C54.8281 22.8182 54.6974 23.5739 54.6974 24.4545C54.6974 25.3466 54.8281 26.1136 55.0895 26.7557C55.3509 27.392 55.7173 27.8835 56.1889 28.2301C56.6662 28.571 57.2259 28.7415 57.8679 28.7415C58.3224 28.7415 58.7287 28.6562 59.0866 28.4858C59.4503 28.3097 59.7543 28.0568 59.9986 27.7273C60.2429 27.3977 60.4105 26.9972 60.5014 26.5256H63.4503C63.3764 27.4517 63.1037 28.2727 62.6321 28.9886C62.1605 29.6989 61.5185 30.2557 60.706 30.6591C59.8935 31.0568 58.9389 31.2557 57.8423 31.2557Z" fill="black"/>
<path d="M66.12 31V13.5455H69.282V21.5653H69.495L76.3047 13.5455H80.1655L73.4155 21.3778L80.2251 31H76.424L71.2166 23.517L69.282 25.8011V31H66.12ZM83.0462 31V17.9091H86.1314V31H83.0462ZM84.5973 16.0511C84.1087 16.0511 83.6882 15.8892 83.3359 15.5653C82.9837 15.2358 82.8075 14.8409 82.8075 14.3807C82.8075 13.9148 82.9837 13.5199 83.3359 13.196C83.6882 12.8665 84.1087 12.7017 84.5973 12.7017C85.0916 12.7017 85.5121 12.8665 85.8587 13.196C86.2109 13.5199 86.3871 13.9148 86.3871 14.3807C86.3871 14.8409 86.2109 15.2358 85.8587 15.5653C85.5121 15.8892 85.0916 16.0511 84.5973 16.0511ZM92.3892 23.3295V31H89.304V17.9091H92.2528V20.1335H92.4062C92.7074 19.4006 93.1875 18.8182 93.8466 18.3864C94.5114 17.9545 95.3324 17.7386 96.3097 17.7386C97.2131 17.7386 98 17.9318 98.6705 18.3182C99.3466 18.7045 99.8693 19.2642 100.239 19.9972C100.614 20.7301 100.798 21.6193 100.793 22.6648V31H97.7074V23.142C97.7074 22.267 97.4801 21.5824 97.0256 21.0881C96.5767 20.5937 95.9545 20.3466 95.1591 20.3466C94.6193 20.3466 94.1392 20.4659 93.7188 20.7045C93.304 20.9375 92.9773 21.2756 92.7386 21.7188C92.5057 22.1619 92.3892 22.6989 92.3892 23.3295ZM109.622 36.1818C108.514 36.1818 107.563 36.0313 106.767 35.7301C105.972 35.4347 105.332 35.0369 104.849 34.5369C104.366 34.0369 104.031 33.483 103.844 32.875L106.622 32.2017C106.747 32.4574 106.929 32.7102 107.168 32.9602C107.406 33.2159 107.727 33.4261 108.131 33.5909C108.54 33.7614 109.054 33.8466 109.673 33.8466C110.548 33.8466 111.273 33.6335 111.847 33.2074C112.42 32.7869 112.707 32.0938 112.707 31.1278V28.6477H112.554C112.395 28.9659 112.162 29.2926 111.855 29.6278C111.554 29.9631 111.153 30.2443 110.653 30.4716C110.159 30.6989 109.537 30.8125 108.787 30.8125C107.781 30.8125 106.869 30.5767 106.051 30.1051C105.239 29.6278 104.591 28.9176 104.108 27.9744C103.631 27.0256 103.392 25.8381 103.392 24.4119C103.392 22.9744 103.631 21.7614 104.108 20.7727C104.591 19.7784 105.241 19.0256 106.06 18.5142C106.878 17.9972 107.79 17.7386 108.795 17.7386C109.563 17.7386 110.193 17.8693 110.688 18.1307C111.188 18.3864 111.585 18.696 111.881 19.0597C112.176 19.4176 112.401 19.7557 112.554 20.0739H112.724V17.9091H115.767V31.2131C115.767 32.3324 115.5 33.2585 114.966 33.9915C114.432 34.7244 113.702 35.2727 112.776 35.6364C111.849 36 110.798 36.1818 109.622 36.1818ZM109.648 28.392C110.301 28.392 110.858 28.233 111.318 27.9148C111.778 27.5966 112.128 27.1392 112.366 26.5426C112.605 25.946 112.724 25.2301 112.724 24.3949C112.724 23.571 112.605 22.8494 112.366 22.2301C112.134 21.6108 111.787 21.1307 111.327 20.7898C110.872 20.4432 110.313 20.2699 109.648 20.2699C108.96 20.2699 108.386 20.4489 107.926 20.8068C107.466 21.1648 107.119 21.6562 106.886 22.2812C106.653 22.9006 106.537 23.6051 106.537 24.3949C106.537 25.196 106.653 25.8977 106.886 26.5C107.125 27.0966 107.474 27.5625 107.935 27.8977C108.401 28.2273 108.972 28.392 109.648 28.392Z" fill="white"/>
</g>
<defs>
<filter id="filter0_d_55_120" x="0" y="0" width="128" height="49" filterUnits="userSpaceOnUse" color-interpolation-filters="sRGB">
<feFlood flood-opacity="0" result="BackgroundImageFix"/>
<feColorMatrix in="SourceAlpha" type="matrix" values="0 0 0 0 0 0 0 0 0 0 0 0 0 0 0 0 0 0 127 0" result="hardAlpha"/>
<feOffset dx="-5" dy="5"/>
<feComposite in2="hardAlpha" operator="out"/>
<feColorMatrix type="matrix" values="0 0 0 0 0 0 0 0 0 0 0 0 0 0 0 0 0 0 1 0"/>
<feBlend mode="normal" in2="BackgroundImageFix" result="effect1_dropShadow_55_120"/>
<feBlend mode="normal" in="SourceGraphic" in2="effect1_dropShadow_55_120" result="shape"/>
</filter>
</defs>
</svg>
